# xmcd CD database file
#
# Track frame offsets:
#	150
#	21834
#	33331
#	50311
#	64568
#	82188
#	96765
#	108554
#	123545
#	139904
#	151517
#
# Disc length: 2263 seconds
#
# Revision: 0
# Processed by: cddbd v1.5.2PL0 Copyright (c) Steve Scherf et al.
# Submitted via: CDex 1.51
#
DISCID=8a08d50b
DTITLE=Alan Tyler - Faithful
DYEAR=2002
DGENRE=Country
TTITLE0=Everybody Is A Cowboy Now
TTITLE1=Nickel In A Diamond Mine
TTITLE2=I Will Never See The Light Of Day Again
TTITLE3=Hey! I'm Calling
TTITLE4=Knee High
TTITLE5=Tina
TTITLE6=Ivanhoe
TTITLE7=Did You Miss Me?
TTITLE8=Mobile
TTITLE9=There's A Place In My Heart I Call Texas
TTITLE10=Silver Whisker
EXTD=YEAR: 2002
EXTT0=
EXTT1=
EXTT2=
EXTT3=
EXTT4=
EXTT5=
EXTT6=
EXTT7=
EXTT8=
EXTT9=
EXTT10=
PLAYORDER=
